<?xml version="1.0" encoding="UTF-8" standalone="no"?>
<svg
   id="Layer_1"
   data-name="Layer 1"
   viewBox="0 0 24 24"
   width="512"
   height="512"
   version="1.1"
   sodipodi:docname="icon.svg"
   inkscape:version="1.4 (86a8ad7, 2024-10-11)"
   xmlns:inkscape="http://www.inkscape.org/namespaces/inkscape"
   xmlns:sodipodi="http://sodipodi.sourceforge.net/DTD/sodipodi-0.dtd"
   xmlns="http://www.w3.org/2000/svg"
   xmlns:svg="http://www.w3.org/2000/svg">
  <defs
     id="defs1" />
  <sodipodi:namedview
     id="namedview1"
     pagecolor="#ffffff"
     bordercolor="#000000"
     borderopacity="0.25"
     inkscape:showpageshadow="2"
     inkscape:pageopacity="0.0"
     inkscape:pagecheckerboard="0"
     inkscape:deskcolor="#d1d1d1"
     inkscape:zoom="0.81054688"
     inkscape:cx="255.38313"
     inkscape:cy="256"
     inkscape:window-width="1366"
     inkscape:window-height="697"
     inkscape:window-x="-8"
     inkscape:window-y="-8"
     inkscape:window-maximized="1"
     inkscape:current-layer="Layer_1" />
  <path
     d="m 14.683502,7.0004883 c -0.38375,0 -0.767547,0.1465447 -1.060547,0.4395447 -0.586,0.585 -0.586,1.5360022 0,2.1210022 l 2.306031,2.3059388 c 0.094,0.095 0.094,0.260034 0,0.354034 l -2.218964,2.218964 c -0.586,0.585 -0.586,1.536002 0,2.121002 0.293,0.293 0.677005,0.438995 1.061005,0.438995 v 0.001 c 0.384,0 0.768004,-0.145996 1.061004,-0.438996 l 2.218964,-2.218963 c 1.267,-1.267 1.267,-3.328039 0,-4.5960392 L 15.743958,7.440033 c -0.293,-0.293 -0.676706,-0.4395447 -1.060456,-0.4395447 z"
     style="fill:#ff3a0e;fill-opacity:1"
     id="path4" />
  <path
     d="m 9.318512,7.0004883 c -0.38375,0 -0.7675469,0.1465447 -1.0605469,0.4395447 L 5.9510193,9.7469788 c -1.266,1.2670002 -1.266,3.3280312 0,4.5950312 l 2.2189636,2.218964 c 0.293,0.293 0.6770046,0.438995 1.0610046,0.438995 0.384,0 0.7680047,-0.145995 1.0610045,-0.438995 h -0.002 c 0.586,-0.585 0.586,-1.536002 0,-2.121002 L 8.0720215,12.222015 c -0.094,-0.095 -0.094,-0.260034 0,-0.354034 L 10.378967,9.5610352 c 0.586,-0.585 0.586,-1.5360022 0,-2.1210022 -0.293,-0.293 -0.676705,-0.4395447 -1.060455,-0.4395447 z"
     style="fill:#ffffff;fill-opacity:1"
     id="path3" />
  <path
     d="M 11.873108,0.0017395 C 11.224014,0.01094385 10.567645,0.07264526 9.90802,0.18795776 4.61402,1.1199578 0.56203027,5.5179722 0.05603027,10.883972 c -0.313,3.311 0.73298389,6.47406 2.94598393,8.90506 2.435,2.676 6.0909824,4.209961 10.0319828,4.209961 h 5.465972 c 3.033,0 5.500031,-2.467031 5.500031,-5.500031 v -6.17395 c 0,-3.7129998 -1.618019,-7.201 -4.438019,-9.569 -2.201062,-1.84762504 -4.876135,-2.794158 -7.688873,-2.7542725 z m 0.156921,3.0002747 c 2.051,0 3.997929,0.7049714 5.601929,2.0519714 h 0.001 C 19.772965,6.8499856 21,9.5000122 21,12.325012 v 6.174957 C 21,19.877969 19.877969,21 18.499969,21 h -5.465972 c -3.0980004,0 -5.9450192,-1.176973 -7.8130192,-3.228973 -1.637,-1.799 -2.4109551,-4.145065 -2.1789551,-6.604065 0.375,-3.9620003 3.4800098,-7.3359495 7.3850093,-8.0229495 0.539,-0.095 1.073997,-0.1419983 1.602997,-0.1419983 z"
     style="fill:#ffffff"
     id="path2" />
</svg>
