<?xml version="1.0" encoding="UTF-8" standalone="no"?>
<svg
   width="512"
   height="512"
   viewBox="0 0 511.99999 512.00002"
   role="img"
   artist="Katerina Limpitsouni"
   source="https://undraw.co/"
   version="1.1"
   id="svg21"
   sodipodi:docname="undraw_searching_no1g.svg"
   inkscape:version="1.4.2 (ebf0e94, 2025-05-08)"
   xmlns:inkscape="http://www.inkscape.org/namespaces/inkscape"
   xmlns:sodipodi="http://sodipodi.sourceforge.net/DTD/sodipodi-0.dtd"
   xmlns="http://www.w3.org/2000/svg"
   xmlns:svg="http://www.w3.org/2000/svg">
  <defs
     id="defs21">
    <filter
       style="color-interpolation-filters:sRGB"
       inkscape:label="Greyscale"
       id="filter22"
       x="0"
       y="0"
       width="1"
       height="1">
      <feColorMatrix
         values="0.21 0.72 0.072 0 0 0.21 0.72 0.072 0 0 0.21 0.72 0.072 0 0 0 0 0 1 0 "
         id="feColorMatrix22"
         result="fbSourceGraphic" />
      <feColorMatrix
         result="fbSourceGraphicAlpha"
         in="fbSourceGraphic"
         values="0 0 0 -1 0 0 0 0 -1 0 0 0 0 -1 0 0 0 0 1 0"
         id="feColorMatrix23" />
      <feColorMatrix
         id="feColorMatrix24"
         values="0.21 0.72 0.072 0 0 0.21 0.72 0.072 0 0 0.21 0.72 0.072 0 0 0 0 0 1 0 "
         in="fbSourceGraphic" />
    </filter>
  </defs>
  <sodipodi:namedview
     id="namedview21"
     pagecolor="#ffffff"
     bordercolor="#000000"
     borderopacity="0.25"
     inkscape:showpageshadow="2"
     inkscape:pageopacity="0.0"
     inkscape:pagecheckerboard="0"
     inkscape:deskcolor="#d1d1d1"
     inkscape:zoom="0.67904138"
     inkscape:cx="251.82559"
     inkscape:cy="231.94463"
     inkscape:window-width="1366"
     inkscape:window-height="697"
     inkscape:window-x="-8"
     inkscape:window-y="-8"
     inkscape:window-maximized="1"
     inkscape:current-layer="svg21" />
  <rect
     style="fill:#cccccc;fill-opacity:1;stroke:none;stroke-width:6.71402"
     id="rect24"
     width="512"
     height="512"
     x="1.1546319e-14"
     y="3.08642e-14" />
  <g
     id="g22"
     transform="matrix(0.57967047,0,0,0.57967047,97.47236,107.33999)"
     style="display:inline;filter:url(#filter22)">
    <path
       d="M 372.63287,365.4151 H 174.32491 c -16.66894,0 -30.22987,-13.56093 -30.22987,-30.22987 V 136.87726 c 0,-16.66894 13.56093,-30.22987 30.22987,-30.22987 h 198.30797 c 16.66894,0 30.22987,13.56093 30.22987,30.22987 v 198.30797 c 0,16.66894 -13.56093,30.22987 -30.22987,30.22987 z M 174.32491,111.48416 c -14.02422,0 -25.39309,11.36888 -25.39309,25.39309 v 198.30797 c 0,14.02422 11.36888,25.39309 25.39309,25.39309 h 138.90984 c 46.8289,0 84.79122,-37.96232 84.79122,-84.79122 V 136.87726 c 0,-14.02422 -11.36888,-25.39309 -25.39309,-25.39309 H 174.32491 Z"
       fill="#f2f2f2"
       id="path1" />
    <path
       d="m 195.70439,132.1061 c -9.38575,0 -17.02112,7.63537 -17.02112,17.02112 v 26.64175 c 0,9.38575 7.63537,17.02112 17.02112,17.02112 h 26.64175 c 9.38575,0 17.02112,-7.63537 17.02112,-17.02112 v -26.64175 c 0,-9.38575 -7.63537,-17.02112 -17.02112,-17.02112 z"
       fill="#f2f2f2"
       id="path2" />
    <path
       d="m 195.70439,207.1061 c -9.38575,0 -17.02112,7.63537 -17.02112,17.02112 v 26.64175 c 0,9.38575 7.63537,17.02112 17.02112,17.02112 h 26.64175 c 9.38575,0 17.02112,-7.63537 17.02112,-17.02112 v -26.64175 c 0,-9.38575 -7.63537,-17.02112 -17.02112,-17.02112 z"
       fill="#f2f2f2"
       id="path3" />
    <path
       d="m 195.70439,282.1061 c -9.38575,0 -17.02112,7.63537 -17.02112,17.02112 v 26.64175 c 0,9.38575 7.63537,17.02112 17.02112,17.02112 h 26.64175 c 9.38575,0 17.02112,-7.63537 17.02112,-17.02112 v -26.64175 c 0,-9.38575 -7.63537,-17.02112 -17.02112,-17.02112 z"
       fill="#f2f2f2"
       id="path4" />
    <g
       id="g17">
      <path
         d="m 213.3715,67.1061 c -11.82633,0 -21.44711,9.62079 -21.44711,21.44711 v 33.56939 c 0,11.82633 9.62079,21.44711 21.44711,21.44711 h 33.56939 c 11.82633,0 21.44711,-9.62079 21.44711,-21.44711 V 88.55321 c 0,-11.82633 -9.62079,-21.44711 -21.44711,-21.44711 z"
         fill="#6c63ff"
         id="path5" />
      <path
         d="m 323.89034,160.9186 c -11.82633,0 -21.44711,9.62079 -21.44711,21.44711 v 33.56939 c 0,11.82633 9.62079,21.44711 21.44711,21.44711 h 33.56939 c 11.82633,0 21.44711,-9.62079 21.44711,-21.44711 v -33.56939 c 0,-11.82633 -9.62079,-21.44711 -21.44711,-21.44711 z"
         fill="#6c63ff"
         id="path6" />
      <g
         id="g7">
        <polygon
           points="269.02267,498.75047 266.00379,471.83263 276.06892,471.91748 275.84229,498.80796 "
           fill="#a0616a"
           id="polygon6" />
        <path
           d="m 253.99807,509.65233 c -0.0148,1.6785 1.33828,3.06028 3.0229,3.07572 l 13.55914,0.11314 2.37372,-4.81149 0.8718,4.83603 5.11615,0.0464 -1.2919,-17.24842 -1.77998,-0.11842 -7.26029,-0.50048 -2.34232,-0.15686 -0.0411,4.88024 -10.89209,7.38777 c -0.82869,0.56298 -1.32776,1.49545 -1.33604,2.49637 z"
           fill="#2f2e41"
           id="path7" />
      </g>
      <g
         id="g8">
        <polygon
           points="303.72044,498.75047 300.70157,471.83263 310.76669,471.91748 310.54007,498.80796 "
           fill="#a0616a"
           id="polygon7" />
        <path
           d="m 288.69584,509.65233 c -0.0148,1.6785 1.33828,3.06028 3.0229,3.07572 l 13.55914,0.11314 2.37372,-4.81149 0.8718,4.83603 5.11615,0.0464 -1.2919,-17.24842 -1.77998,-0.11842 -7.26029,-0.50048 -2.34232,-0.15686 -0.0411,4.88024 -10.89209,7.38777 c -0.82869,0.56298 -1.32776,1.49545 -1.33604,2.49637 z"
           fill="#2f2e41"
           id="path8" />
      </g>
      <path
         d="m 249.08109,281.17831 27.64346,0.87295 26.18854,5.81968 c 0,0 -2.61885,3.20082 6.11066,11.93033 0,0 11.63935,20.36886 3.49181,40.15576 l -3.49181,79.14758 c 0,0 10.18085,55.79388 2.40219,73.5511 l -10.28082,0.64255 -17.39634,-73.54982 -8.47914,-79.20944 -4.07377,77.98365 c 0,0 15.58482,53.52659 5.74359,74.77562 l -11.13465,-0.64255 -19.05157,-74.13307 c 0,0 -8.14755,-85.54922 -6.98361,-101.84432 1.16394,-16.29509 9.31148,-35.50002 9.31148,-35.50002 z"
         fill="#2f2e41"
         id="path9" />
      <g
         id="g11">
        <path
           d="m 341.91407,156.11273 c -3.77892,0.97845 -6.04918,4.83514 -5.07069,8.61407 0.44834,1.73156 1.50489,3.14028 2.87746,4.07089 l -4.1e-4,0.01 -0.53609,12.98479 9.93665,4.59846 0.7932,-19.98146 -0.0692,0.002 c 0.86159,-1.53494 1.15931,-3.38933 0.68324,-5.22793 -0.97848,-3.77893 -4.83517,-6.04911 -8.61416,-5.0706 z"
           fill="#a0616a"
           id="path10" />
        <path
           d="m 286.37793,202.45483 c -2.08746,-2.06912 -3.29844,-4.87434 -3.34374,-7.92486 -0.0609,-4.09228 1.98991,-7.80651 5.48559,-9.93539 4.02563,-2.45174 9.05967,-2.20364 12.82498,0.63119 l 31.20286,23.4935 5.55989,-33.84423 11.93675,3.84257 -2.84806,44.07 c -0.19948,3.08263 -1.94154,5.7983 -4.6607,7.26426 -2.71916,1.46596 -5.94507,1.42927 -8.63009,-0.0982 l -45.0929,-25.65511 c -0.90583,-0.51546 -1.7216,-1.13691 -2.43458,-1.84377 z"
           fill="#3f3d56"
           id="path11" />
      </g>
      <g
         id="g13">
        <path
           d="m 238.79919,137.1819 c 1.9947,3.35541 0.89159,7.69261 -2.46385,9.68729 -1.5375,0.914 -3.27962,1.17053 -4.90955,0.86503 l -0.007,0.007 -8.76131,9.59852 -10.29404,-3.73037 13.50476,-14.7482 0.0477,0.0502 c 0.46883,-1.69663 1.563,-3.22314 3.19555,-4.19363 3.35544,-1.99468 7.69258,-0.89152 9.68729,2.46398 z"
           fill="#a0616a"
           id="path12" />
        <path
           d="m 242.58351,208.7873 -50.08512,-13.52903 c -2.98215,-0.8057 -5.29885,-3.05086 -6.19773,-6.00635 -0.89888,-2.95549 -0.22401,-6.11051 1.80467,-8.44008 l 29.00517,-33.30129 11.18221,5.67535 -19.87987,27.94879 38.69929,5.28473 c 4.66979,0.63785 8.41937,4.00591 9.55199,8.58126 0.98359,3.97296 -0.17507,8.05448 -3.09949,10.91773 -2.17991,2.13441 -5.01491,3.27394 -7.95408,3.27362 -1.00399,0 -2.02084,-0.13303 -3.02702,-0.40473 z"
           fill="#3f3d56"
           id="path13" />
      </g>
      <path
         d="m 313.98891,292.82223 -70.0381,3.21276 c -1.92358,-2.92109 -1.40264,-7.31347 1.29122,-12.81367 10.17125,-20.76721 2.44654,-60.05462 -2.74985,-80.51179 -1.45798,-5.73976 2.4559,-11.44589 8.34855,-12.03515 l 6.60367,-0.66037 6.10424,-18.63399 h 21.37875 l 8.86923,10.13266 15.05189,9.14389 c -2.73972,28.22064 -14.41356,68.0706 2.2172,88.05507 3.63737,4.37087 4.66873,9.09743 2.92321,14.1106 z"
         fill="#3f3d56"
         id="path14" />
      <circle
         cx="271.51868"
         cy="150.9868"
         r="20.82357"
         fill="#a0616a"
         id="circle14" />
      <path
         d="m 295.08231,137.65762 c 2.8972,-10.56287 -28.67928,-19.62073 -34.81549,-11.11444 -0.85326,-1.20934 -4.00655,-1.9439 -5.45336,-1.57293 -1.44681,0.37097 -2.66357,1.29841 -3.85072,2.19619 -1.6323,1.2539 -3.32392,2.55231 -4.32553,4.35524 -1.00909,1.79551 -1.16487,4.24398 0.19287,5.80205 1.07584,1.23904 2.9663,7.82332 4.58375,8.14978 1.12773,0.23 2.07745,0.41549 2.89358,0.54904 0.72714,-1.06098 2.58132,-2.39375 2.44778,-3.67731 1.09807,0.7271 0.69691,2.00635 0.47552,3.31376 -0.73718,4.35363 -17.34626,38.05525 -7.83345,28.12415 0.9423,0.55647 2.10715,1.07583 3.45008,1.55065 2.27775,-3.43523 4.14747,-7.48625 5.37914,-11.7228 l 0.009,0.0783 c 0.42405,3.68168 3.11456,6.70263 6.67421,7.73388 14.27942,4.13681 25.82989,-1.93337 29.80326,-12.87997 -1.45451,-2.95297 -2.08826,-2.63223 -1.95797,-2.72004 1.81577,-1.2238 4.31135,-0.42345 5.09179,1.62242 0.2301,0.60321 0.43924,1.1182 0.62043,1.50569 2.07002,-7.40469 4.53201,-6.33593 -3.38458,-21.29362 z"
         fill="#2f2e41"
         id="path15" />
      <path
         d="m 285.23139,129.99395 -1.4586,-7.45697 c -0.12261,-0.62684 -0.23896,-1.30695 0.0437,-1.87973 0.36317,-0.73595 1.29668,-1.04096 2.10893,-0.92366 0.81225,0.11729 1.41978,0.85923 2.22791,1.0021 2.80975,0.49673 6.52379,-2.27858 7.53053,4.7424 0.41975,2.92732 5.09082,3.23652 6.65079,5.74883 1.55997,2.51232 1.75148,6.13862 -0.37749,8.19111 -1.70031,1.63923 -4.43095,1.82843 -6.63933,0.99107 -2.20838,-0.83736 -3.98071,-2.52874 -5.52887,-4.31237 -1.54816,-1.78363 -2.9501,-3.71374 -4.73583,-5.25948"
         fill="#2f2e41"
         id="path16" />
      <path
         d="m 296.19459,141.33592 c -5.69794,-0.79597 -9.5818,-2.86826 -11.54365,-6.15883 -2.5677,-4.30742 -0.84774,-9.05031 -0.77338,-9.25017 l 1.20447,0.44772 c -0.016,0.0436 -1.57626,4.38523 0.67957,8.15551 1.75478,2.9329 5.32489,4.79466 10.61057,5.53322 z"
         fill="#6c63ff"
         id="path17" />
    </g>
    <path
       d="m 322.93382,60.76232 c -16.75117,0 -30.38116,-13.62998 -30.38116,-30.38116 C 292.55266,13.62998 306.18264,0 322.93382,0 c 16.75118,0 30.38116,13.62998 30.38116,30.38116 0,16.75118 -13.62998,30.38116 -30.38116,30.38116 z m 0,-48.60985 c -10.05189,0 -18.22869,8.1768 -18.22869,18.22869 0,10.05189 8.1768,18.22869 18.22869,18.22869 10.05189,0 18.22869,-8.1768 18.22869,-18.22869 0,-10.05189 -8.1768,-18.22869 -18.22869,-18.22869 z"
       fill="#6c63ff"
       id="path18" />
    <path
       d="m 369.67748,81.40904 c -1.48939,0 -2.98174,-0.54294 -4.15367,-1.64367 L 337.00884,53.04241 c -2.45067,-2.29342 -2.57528,-6.13854 -0.27889,-8.58624 2.29045,-2.4566 6.13557,-2.57824 8.58624,-0.27889 l 28.51497,26.72296 c 2.45067,2.29342 2.57528,6.13854 0.27889,8.58624 -1.19566,1.27874 -2.81263,1.92256 -4.43256,1.92256 z"
       fill="#6c63ff"
       id="path19" />
    <g
       id="g21" />
  </g>
</svg>
