<?xml version="1.0" encoding="UTF-8" standalone="no"?>
<svg
   id="Layer_1"
   data-name="Layer 1"
   viewBox="0 0 1.125 1.1250061"
   width="24"
   height="24.00013"
   version="1.1"
   sodipodi:docname="icon.svg"
   inkscape:version="1.4.2 (ebf0e94, 2025-05-08)"
   xmlns:inkscape="http://www.inkscape.org/namespaces/inkscape"
   xmlns:sodipodi="http://sodipodi.sourceforge.net/DTD/sodipodi-0.dtd"
   xmlns="http://www.w3.org/2000/svg"
   xmlns:svg="http://www.w3.org/2000/svg">
  <defs
     id="defs1" />
  <sodipodi:namedview
     id="namedview1"
     pagecolor="#ffffff"
     bordercolor="#000000"
     borderopacity="0.25"
     inkscape:showpageshadow="2"
     inkscape:pageopacity="0.0"
     inkscape:pagecheckerboard="0"
     inkscape:deskcolor="#d1d1d1"
     inkscape:zoom="12.96875"
     inkscape:cx="14.380723"
     inkscape:cy="14.99759"
     inkscape:window-width="1366"
     inkscape:window-height="697"
     inkscape:window-x="-8"
     inkscape:window-y="-8"
     inkscape:window-maximized="1"
     inkscape:current-layer="g1" />
  <g
     id="g1">
    <g
       id="g2"
       transform="matrix(0.91304348,0,0,0.91304348,0.07031251,0.0703129)">
      <path
         d="m 0.65958138,0.31447311 c -0.01724,0 -0.0344821,0.006584 -0.047645,0.0197465 -0.0263261,0.0262811 -0.0263261,0.0690048 0,0.0952861 l 0.10359845,0.10359428 c 0.004223,0.004268 0.004223,0.0116826 0,0.015905 l -0.099687,0.099687 c -0.0263261,0.0262811 -0.0263261,0.0690048 0,0.0952861 0.0131633,0.0131633 0.0304145,0.0197219 0.0476656,0.0197219 v 4.492e-5 c 0.0172512,0 0.0345026,-0.006559 0.0476656,-0.0197219 l 0.099687,-0.0996869 c 0.05692,-0.05692 0.05692,-0.14951212 0,-0.20647703 L 0.7072224,0.33421962 c -0.0131633,-0.0131633 -0.030401,-0.0197465 -0.047641,-0.0197465 z"
         style="fill:#ffa366;fill-opacity:1;stroke-width:0.044925"
         id="path4"
         inkscape:label="path4" />
      <path
         d="m 0.41855924,0.31447311 c -0.01724,0 -0.0344821,0.006584 -0.047645,0.0197465 L 0.26727463,0.43785915 c -0.056875,0.05692 -0.056875,0.14951179 0,0.20643175 l 0.099687,0.099687 c 0.0131633,0.0131633 0.0304144,0.0197219 0.0476656,0.0197219 0.0172512,0 0.0345026,-0.006559 0.0476656,-0.0197219 h -8.985e-5 c 0.0263261,-0.0262811 0.0263261,-0.0690048 0,-0.0952861 L 0.36256068,0.5490501 c -0.004223,-0.004268 -0.004223,-0.0116826 0,-0.015905 L 0.46620026,0.42950553 c 0.0263261,-0.0262811 0.0263261,-0.0690048 0,-0.0952861 -0.0131633,-0.0131633 -0.030401,-0.0197465 -0.047641,-0.0197463 z"
         style="fill:#ffffff;fill-opacity:1;stroke-width:0.044925"
         id="path3" />
      <path
         d="M 0.53332446,5.4371579e-5 C 0.50416391,4.6787694e-4 0.47467654,0.00323981 0.44504289,0.00842022 0.20720998,0.05029032 0.02517436,0.24787109 0.00244231,0.48893859 -0.01161922,0.63768525 0.0353716,0.7797857 0.13479062,0.88899835 0.24418298,1.0092176 0.40842797,1.0781308 0.58547738,1.0781308 h 0.24555876 c 0.13625748,0 0.24708886,-0.11083139 0.24708886,-0.24708882 V 0.55367731 c 0,-0.16680649 -0.07269,-0.32350489 -0.19937798,-0.42988726 C 0.77986433,0.0407855 0.65968669,-0.00173749 0.53332446,5.4371579e-5 Z M 0.54037399,0.13484169 c 0.0921412,0 0.17960694,0.0316708 0.25166663,0.0921848 h 4.492e-5 c 0.0961398,0.0806853 0.15126435,0.19973771 0.15126435,0.32665082 v 0.2774099 c 0,0.0619067 -0.0504072,0.11231392 -0.11231392,0.11231392 H 0.58547738 c -0.13917763,0 -0.26707994,-0.0528756 -0.35099984,-0.14506159 C 0.16093536,0.7175194 0.1261654,0.61212248 0.13658801,0.50165192 0.15343488,0.32365907 0.29292743,0.17208443 0.4683595,0.14122097 c 0.0242145,-0.004268 0.0482494,-0.006379 0.0720145,-0.006379 z"
         style="fill:#ffffff;stroke-width:0.044925"
         id="path2" />
    </g>
  </g>
</svg>
